<?xml version="1.0" encoding="UTF-8"?>
<svg version="1.1" xmlns="http://www.w3.org/2000/svg" width="512" height="512">
<path d="M0 0 C1.02335449 0.21962402 2.04670898 0.43924805 3.10107422 0.66552734 C36.15244477 7.91620062 68.4405208 21.17017814 96 41 C96.60763184 41.43393066 97.21526367 41.86786133 97.84130859 42.31494141 C106.45532437 48.49811205 114.50581097 55.02290357 122.18359375 62.3359375 C124.42547736 64.45655418 126.69440909 66.46328048 129.0625 68.4375 C166.77544113 101.33770178 191.08191229 152.81659932 201 201 C201.21027832 202.00111816 201.42055664 203.00223633 201.63720703 204.03369141 C207.98924225 235.75363289 207.68608653 271.37374941 201 303 C200.78037598 304.04188477 200.56075195 305.08376953 200.33447266 306.15722656 C193.12839548 339.19400501 179.77954008 371.45134197 160 399 C159.30519531 399.96808594 158.61039062 400.93617188 157.89453125 401.93359375 C146.55372094 417.36913911 133.80969881 432.78131664 119 445 C118.08347656 445.804375 117.16695313 446.60875 116.22265625 447.4375 C83.36136924 476.1963323 43.37130716 494.49092777 1 504 C-0.50457764 504.34321289 -0.50457764 504.34321289 -2.03955078 504.69335938 C-18.35361989 508.22395532 -34.69392241 508.3862671 -51.3125 508.4375 C-52.36905792 508.44385468 -53.42561584 508.45020935 -54.51419067 508.45675659 C-73.53503478 508.52783253 -92.13441977 506.90307827 -110.625 502.25 C-112.17864258 501.86702759 -112.17864258 501.86702759 -113.76367188 501.47631836 C-123.74670475 498.93996002 -133.39030134 495.68886427 -143 492 C-143.70463379 491.73638672 -144.40926758 491.47277344 -145.13525391 491.20117188 C-173.84981915 480.40021827 -200.11594343 463.93505866 -222.6484375 443.1640625 C-224.21719481 441.72038883 -225.80606886 440.29827663 -227.4140625 438.8984375 C-273.04163133 399.06484567 -302.43167025 335.98602645 -307 276 C-307.38332218 268.23394006 -307.38999031 260.46126412 -307.375 252.6875 C-307.37445618 251.626521 -307.37391235 250.56554199 -307.37335205 249.47241211 C-307.33453011 232.9858209 -306.56713932 217.15323633 -303 201 C-302.78037598 199.97664551 -302.56075195 198.95329102 -302.33447266 197.89892578 C-295.08482504 164.8522306 -281.83445971 132.55186767 -262 105 C-261.56075195 104.38705078 -261.12150391 103.77410156 -260.66894531 103.14257812 C-254.69659829 94.85326777 -248.46759342 87.00526972 -241.4375 79.58984375 C-239.4372834 77.46461361 -237.55207598 75.30465261 -235.6875 73.0625 C-202.20979471 34.75704052 -150.99518101 10.27267213 -102 0 C-100.56285645 -0.31541748 -100.56285645 -0.31541748 -99.09667969 -0.63720703 C-67.6647989 -7.28241383 -31.33862212 -6.920547 0 0 Z " fill="#D5003F" transform="translate(307,4)"/>
<path d="M0 0 C159.06 0 318.12 0 482 0 C475.01567798 20.95296605 464.89808524 41.03573299 452 59 C451.30519531 59.96808594 450.61039062 60.93617188 449.89453125 61.93359375 C438.55372094 77.36913911 425.80969881 92.78131664 411 105 C410.08347656 105.804375 409.16695313 106.60875 408.22265625 107.4375 C375.36136924 136.1963323 335.37130716 154.49092777 293 164 C291.99694824 164.22880859 290.99389648 164.45761719 289.96044922 164.69335938 C273.64638011 168.22395532 257.30607759 168.3862671 240.6875 168.4375 C239.63094208 168.44385468 238.57438416 168.45020935 237.48580933 168.45675659 C218.46496522 168.52783253 199.86558023 166.90307827 181.375 162.25 C179.82135742 161.86702759 179.82135742 161.86702759 178.23632812 161.47631836 C168.25329525 158.93996002 158.60969866 155.68886427 149 152 C148.29536621 151.73638672 147.59073242 151.47277344 146.86474609 151.20117188 C118.15018085 140.40021827 91.88405657 123.93505866 69.3515625 103.1640625 C67.78280519 101.72038883 66.19393114 100.29827663 64.5859375 98.8984375 C35.53999425 73.540868 13.18190981 38.04234936 0 2 C0 1.34 0 0.68 0 0 Z " fill="#47AD68" transform="translate(15,344)"/>
<path d="M0 0 C1.02335449 0.21962402 2.04670898 0.43924805 3.10107422 0.66552734 C36.15244477 7.91620062 68.4405208 21.17017814 96 41 C96.60763184 41.43393066 97.21526367 41.86786133 97.84130859 42.31494141 C106.45532437 48.49811205 114.50581097 55.02290357 122.18359375 62.3359375 C124.42547736 64.45655418 126.69440909 66.46328048 129.0625 68.4375 C155.98638615 91.92549273 178.74512864 128.16134072 190 162 C190 162.66 190 163.32 190 164 C30.94 164 -128.12 164 -292 164 C-285.02071942 143.06215825 -274.91218159 122.93619407 -262 105 C-261.56075195 104.38705078 -261.12150391 103.77410156 -260.66894531 103.14257812 C-254.69659829 94.85326777 -248.46759342 87.00526972 -241.4375 79.58984375 C-239.4372834 77.46461361 -237.55207598 75.30465261 -235.6875 73.0625 C-202.20979471 34.75704052 -150.99518101 10.27267213 -102 0 C-100.56285645 -0.31541748 -100.56285645 -0.31541748 -99.09667969 -0.63720703 C-67.6647989 -7.28241383 -31.33862212 -6.920547 0 0 Z " fill="#428FC3" transform="translate(307,4)"/>
<path d="M0 0 C3.17795033 2.50083023 6.13413608 5.14861014 9 8 C8.34 8.33 7.68 8.66 7 9 C5.14716995 8.23300055 3.31770527 7.40938541 1.5 6.5625 C-10.13728907 1.90758437 -24.25403563 2.41658404 -35.8125 7.15234375 C-51.17978601 14.22835172 -61.60728185 25.4045777 -68 41 C-73.50953202 56.09036482 -72.95923223 76.41072479 -66.23046875 91.0859375 C-59.01953832 105.62430299 -48.36103048 116.05379465 -33 122 C-18.87932978 126.3233657 -8.58776515 125.51275043 5 120 C5.93199219 119.42894531 6.86398437 118.85789062 7.82421875 118.26953125 C8.54222656 117.85058594 9.26023437 117.43164062 10 117 C10.66 117.33 11.32 117.66 12 118 C-1.76062916 131.37838946 -17.81520453 138.52256392 -37.08203125 138.33984375 C-55.93467052 136.70456995 -71.48987905 126.3078531 -84.05859375 112.78515625 C-98.72113252 95.2488905 -101.66713496 74.09698073 -100 52 C-97.99465052 34.6690456 -89.51510675 19.79240341 -77 8 C-76.20851562 7.25105469 -75.41703125 6.50210938 -74.6015625 5.73046875 C-53.19210518 -12.86944185 -24.0098327 -14.73936952 0 0 Z " fill="#FEFBFC" transform="translate(272,192)"/>
<path d="M0 0 C2.71609918 2.71609918 3.46920222 5.86595045 4.625 9.4375 C4.85445313 10.11876953 5.08390625 10.80003906 5.3203125 11.50195312 C6.29042613 14.44982818 7 16.87666842 7 20 C12.61 17.03 18.22 14.06 24 11 C25.27944591 14.83833773 24.44683621 15.70159232 22.6875 19.25 C20.66439226 23.48166702 19.11187373 27.45142564 18 32 C18.56847656 32.18175781 19.13695312 32.36351562 19.72265625 32.55078125 C24.60701003 34.14084634 29.31029027 35.90459778 34 38 C34 38.66 34 39.32 34 40 C28.72 42.31 23.44 44.62 18 47 C18.51691406 48.27617187 19.03382813 49.55234375 19.56640625 50.8671875 C20.23217476 52.53629727 20.89751738 54.20557697 21.5625 55.875 C22.07586914 57.13763672 22.07586914 57.13763672 22.59960938 58.42578125 C22.91865234 59.23144531 23.23769531 60.03710938 23.56640625 60.8671875 C24.01415405 61.98262939 24.01415405 61.98262939 24.47094727 63.12060547 C25 65 25 65 24 67 C18.39 64.03 12.78 61.06 7 58 C6.566875 59.629375 6.13375 61.25875 5.6875 62.9375 C4.3034268 68.02561672 2.73340207 73.02107916 1 78 C-1.24269478 74.63595782 -2.38655744 71.24283077 -3.625 67.4375 C-3.96917969 66.40979492 -3.96917969 66.40979492 -4.3203125 65.36132812 C-6 60.26727586 -6 60.26727586 -6 58 C-11.61 60.97 -17.22 63.94 -23 67 C-24.34634707 62.96095878 -22.82349909 60.71993471 -21.125 57.0625 C-18.62272134 51.68599674 -18.62272134 51.68599674 -17 46 C-17.556875 45.81824219 -18.11375 45.63648438 -18.6875 45.44921875 C-23.84196991 43.75137815 -28.93010615 41.93577765 -34 40 C-34 39.34 -34 38.68 -34 38 C-28.72 35.69 -23.44 33.38 -18 31 C-18.95523281 25.26860316 -20.49381274 21.5717497 -23.0390625 16.48828125 C-24 14 -24 14 -23 11 C-14.585 15.455 -14.585 15.455 -6 20 C-5.34 17.03 -4.68 14.06 -4 11 C-3.33665175 8.96395664 -2.63521293 6.93939405 -1.875 4.9375 C-1.52179688 3.99777344 -1.16859375 3.05804688 -0.8046875 2.08984375 C-0.53914063 1.40019531 -0.27359375 0.71054688 0 0 Z " fill="#FEFAFB" transform="translate(304,217)"/>
<path d="M0 0 C0.66 0.33 1.32 0.66 2 1 C-1.465 3.97 -1.465 3.97 -5 7 C-5.33 6.34 -5.66 5.68 -6 5 C-4.06745228 2.9754262 -2.36841312 1.57894208 0 0 Z " fill="#F5C4D3" transform="translate(282,309)"/>
</svg>
